<svg width="11" height="14" viewBox="0 0 11 14" fill="none" xmlns="http://www.w3.org/2000/svg">
<path d="M5.57646 8.35019V9.60643C5.10191 9.41409 4.59404 9.3551 4.09549 9.4344C3.59693 9.5137 3.12225 9.72898 2.71131 10.0622C2.30037 10.3954 1.96517 10.8367 1.73385 11.3492C1.50254 11.8617 1.38186 12.4303 1.38195 13.0073L0.333328 13.0067C0.333166 12.2727 0.47957 11.5484 0.761324 10.8894C1.04308 10.2303 1.4527 9.65388 1.95881 9.20434C2.46492 8.75479 3.05408 8.44404 3.68115 8.29588C4.30821 8.14772 4.95654 8.16669 5.57646 8.35019ZM4.52783 7.59765C2.78973 7.59765 1.38195 5.98376 1.38195 3.99121C1.38195 1.99865 2.78973 0.384766 4.52783 0.384766C6.26593 0.384766 7.67371 1.99865 7.67371 3.99121C7.67371 5.98376 6.26593 7.59765 4.52783 7.59765ZM4.52783 6.3955C5.68656 6.3955 6.62508 5.31958 6.62508 3.99121C6.62508 2.66283 5.68656 1.58691 4.52783 1.58691C3.3691 1.58691 2.43058 2.66283 2.43058 3.99121C2.43058 5.31958 3.3691 6.3955 4.52783 6.3955ZM10.197 10.5L10.2206 10.6205L10.2953 11L10.197 10.5L10.2485 10.8384L10.197 11V10.5Z" fill="#FAAD39"/>
</svg>
